# AST/ASF file generated using VICON BodyLanguage
# -----------------------------------------------
:version 1.10
:name VICON
:units
  mass 1.0
  length 0.45
  angle deg
:documentation
   .ast/.asf automatically generated from VICON data using
   VICON BodyBuilder and BodyLanguage model FoxedUp or BRILLIANT.MOD
:root
   order TX TY TZ RX RY RZ
   axis XYZ
   position 0 0 0  
   orientation 0 0 0 
:bonedata
  begin
     id 1 
     name lhipjoint
     direction 0.63403 -0.759788 0.143974 
     length 2.51904 
     axis 0 0 0  XYZ
  end
  begin
     id 2 
     name lfemur
     direction 0.34202 -0.939693 0  
     length 7.42313  
     axis 0 0 20  XYZ
    dof rx ry rz
    limits (-160.0 20.0)
           (-70.0 70.0)
           (-60.0 70.0)
  end
  begin
     id 3 
     name ltibia
     direction 0.34202 -0.939693 0   
     length 8.10141   
     axis 0 0 20   XYZ
    dof rx
    limits (-10.0 170.0)
  end
  begin
     id 4 
     name lfoot
     direction 0.0927455 -0.254816 0.962532   
     length 2.14078   
     axis -90 7.62852e-016 20   XYZ
    dof rx rz
    limits (-45.0 90.0)
           (-70.0 20.0)
  end
  begin
     id 5 
     name ltoes
     direction 1.53556e-011 -4.21949e-011 1   
     length 1.07182   
     axis -90 7.62852e-016 20   XYZ
    dof rx
    limits (-90.0 20.0)
  end
  begin
     id 6 
     name rhipjoint
     direction -0.659892 -0.738223 0.139888   
     length 2.59263  
     axis 0 0 0  XYZ 
  end
  begin
     id 7 
     name rfemur
     direction -0.34202 -0.939693 0   
     length 7.58575   
     axis 0 0 -20   XYZ
    dof rx ry rz
    limits (-160.0 20.0)
           (-70.0 70.0)
           (-70.0 60.0)
  end
  begin
     id 8 
     name rtibia
     direction -0.34202 -0.939693 0   
     length 8.19358   
     axis 0 0 -20   XYZ
    dof rx
    limits (-10.0 170.0)
 end
 begin
     id 9 
     name rfoot
     direction -0.0856543 -0.235333 0.968133   
     length 2.13415  
     axis -90 -7.62852e-016 -20   XYZ
    dof rx rz
    limits (-45.0 90.0)
           (-20.0 70.0)
  end
  begin
     id 10 
     name rtoes
     direction -1.53551e-011 -4.21811e-011 1   
     length 1.07055   
     axis -90 -7.62852e-016 -20   XYZ
    dof rx
    limits (-90.0 20.0)
  end
  begin
     id 11 
     name lowerback
     direction 0.025219 0.998394 -0.0507326   
     length 1.91844   
     axis 0 0 0   XYZ
    dof rx ry rz
    limits (-20.0 45.0)
           (-30.0 30.0)
           (-30.0 30.0)
  end
  begin
     id 12 
     name upperback
     direction 0.0213103 0.99967 -0.0143101   
     length 1.92246   
     axis 0 0 0   XYZ
    dof rx ry rz
    limits (-20.0 45.0)
           (-30.0 30.0)
           (-30.0 30.0)
  end
  begin
     id 13 
     name thorax
     direction 0.00920974 0.99991 0.00971518   
     length 1.92239   
     axis 0 0 0   XYZ
    dof rx ry rz
    limits (-20.0 45.0)
           (-30.0 30.0)
           (-30.0 30.0)
  end
  begin
     id 14 
     name lowerneck
     direction 0.0598257 0.997249 0.0437612   
     length 3.13679   
     axis 0 0 0   XYZ
    dof rx ry rz
    limits (-20.0 45.0)
           (-30.0 30.0)
           (-30.0 30.0)
  end
  begin
     id 15 
     name upperneck
     direction -0.035342 0.999338 0.00863891   
     length 3.16283   
     axis 0 0 0   XYZ
    dof rx ry rz
    limits (-20.0 45.0)
           (-30.0 30.0)
           (-30.0 30.0)
  end
  begin
     id 16
     name head
     direction 0.37144 0.811566 0.450991  
     length 1.2838  
     axis 0 0 0   XYZ
    dof rx ry rz
    limits (-20.0 45.0)
           (-30.0 30.0)
           (-30.0 30.0)
  end
  begin
     id 17 
     name lclavicle
     direction 0.961094 0.274654 -0.0293862  
     length 3.63466  
     axis 0 0 0   XYZ
    dof ry rz
    limits (-20.0 10.0)
           (0.0 20.0)
  end
  begin
     id 18 
     name lhumerus
     direction 1 -4.48963e-011 1.10303e-027   
     length 5.12842   
     axis 180 -30 -90   XYZ
    dof rx ry rz
    limits (-60.0 90.0)
           (-90.0 90.0)
           (-90.0 90.0)
  end
  begin
     id 19
     name lradius
     direction 1 -4.48968e-011 4.13199e-027   
     length 3.47396   
     axis 180 -30 -90   XYZ
    dof rx
    limits (-10.0 170.0)
  end
  begin
     id 20
     name lwrist
     direction 1 -4.48948e-011 9.12708e-027   
     length 1.73698   
     axis -6.84618e-015 90 90   XYZ
    dof ry
    limits (-180.0 0.0)
 end
  begin
     id 21 
     name lhand
     direction 1 -4.49057e-011 1.82749e-026   
     length 0.728607   
     axis -1.16502e-014 90 90   XYZ
    dof rx rz
    limits (-90.0 90.0)
           (-45.0 45.0)
  end
  begin
     id 22 
     name lfingers
     direction 1 -4.48912e-011 3.64949e-026   
     length 0.587422   
     axis -2.33008e-014 90 90   XYZ
    dof rx
    limits (0.0 90.0)
  end
  begin
     id 23
     name lthumb
     direction 0.707107 -6.34995e-011 0.707107   
     length 0.843424   
     axis -90 45 5.69224e-014   XYZ
    dof rx rz
    limits (-45.0 45.0)
           (-45.0 45.0)
  end
  begin
     id 24 
     name rclavicle
     direction -0.90514 0.421881 -0.0523369   
     length 3.57139  
     axis 0 0 0   XYZ 
    dof ry rz
    limits (-10.0 20.0)
           (-20.0 0.0)
  end
  begin
     id 25 
     name rhumerus
     direction -1 -4.48954e-011 -1.76662e-027  
     length 5.48477   
     axis 180 30 90   XYZ
    dof rx ry rz
    limits (-90.0 60.0)
           (-90.0 90.0)
           (-90.0 90.0)
  end
  begin
     id 26 
     name rradius
     direction -1 -4.48982e-011 1.26841e-027   
     length 3.47856   
     axis 180 30 90   XYZ
    dof rx
    limits (-10.0 170.0)
  end
  begin
     id 27 
     name rwrist
     direction -1 -4.49037e-011 9.13554e-027   
     length 1.73928   
     axis -6.84618e-015 -90 -90   XYZ
    dof ry
    limits (-180.0 0.0)
  end
  begin
     id 28
     name rhand
     direction -1 -4.48871e-011 1.82397e-026   
     length 0.709974   
     axis -1.16502e-014 -90 -90   XYZ
    dof rx rz
    limits (-90.0 90.0)
           (-45.0 45.0)
  end
  begin
     id 29
     name rfingers
     direction -1 -4.48994e-011 3.65258e-026   
     length 0.572399   
     axis -2.33008e-014 -90 -90   XYZ
    dof rx
    limits (0.0 90.0)
  end
  begin
     id 30
     name rthumb
     direction -0.707107 -6.34861e-011 0.707107   
     length 0.821855   
     axis -90 -45 -5.69224e-014   XYZ
    dof rx rz
    limits (-45.0 45.0)
           (-45.0 45.0)
  end
:hierarchy
  begin
    root lhipjoint rhipjoint lowerback
    lhipjoint lfemur
    lfemur ltibia
    ltibia lfoot
    lfoot ltoes
    rhipjoint rfemur
    rfemur rtibia
    rtibia rfoot
    rfoot rtoes
    lowerback upperback
    upperback thorax
    thorax lowerneck lclavicle rclavicle
    lowerneck upperneck
    upperneck head
    lclavicle lhumerus
    lhumerus lradius
    lradius lwrist
    lwrist lhand lthumb
    lhand lfingers
    rclavicle rhumerus
    rhumerus rradius
    rradius rwrist
    rwrist rhand rthumb
    rhand rfingers
  end

#!OML:ASF F:\VICON\USERDATA\INSTALL\Justin1\Justin1.ASF
:FULLY-SPECIFIED
:DEGREES
245
root -0.0823678 18.2357 -3.16253 5.98188 -1.70282 -2.86215
lowerback 0.769596 -1.5313 2.19363
upperback -1.49519 -1.95755 2.82268
thorax -1.94049 -0.989118 1.71575
lowerneck -13.0105 -5.0806 -5.55446
upperneck 18.3095 -5.54254 -1.35785
head 7.93859 -3.15525 -0.13136
rclavicle -5.73991e-015 -3.73715e-014
rhumerus -29.5131 -15.8732 -75.6626
rradius 26.109
rwrist 1.3635
rhand -20.6988 18.2981
rfingers 7.12502
rthumb 5.66512 -11.6062
lclavicle -5.73991e-015 -3.73715e-014
lhumerus -35.2721 21.3936 76.1887
lradius 29.4374
lwrist -16.2393
lhand -7.55159 27.8424
lfingers 7.12502
lthumb 18.3403 56.9978
rfemur -15.2499 8.88436 27.2154
rtibia 32.1965
rfoot -17.9529 -16.377
rtoes 25.7642
lfemur -11.9905 -8.55846 -18.9751
ltibia 28.0129
lfoot -18.075 10.1928
ltoes 5.67873
246
root -0.0817785 18.2353 -3.16432 5.99427 -1.70805 -2.858
lowerback 0.772815 -1.5502 2.19268
upperback -1.53482 -1.98146 2.81108
thorax -1.98311 -1.00134 1.70595
lowerneck -12.8538 -5.07901 -5.49393
upperneck 18.2262 -5.54998 -1.43438
head 7.87885 -3.16116 -0.161246
rclavicle -3.52843e-015 -4.37326e-015
rhumerus -29.5867 -15.8445 -75.6733
rradius 26.0808
rwrist 1.22658
rhand -20.7345 18.4479
rfingers 7.12502
rthumb 5.63073 -11.4573
lclavicle -3.52843e-015 -4.37326e-015
lhumerus -35.3081 21.3436 76.1589
lradius 29.4132
lwrist -16.3619
lhand -7.5321 27.7955
lfingers 7.12502
lthumb 18.359 56.9491
rfemur -15.262 8.89887 27.2047
rtibia 32.1744
rfoot -17.9933 -16.3643
rtoes 26.0139
lfemur -12.0091 -8.53568 -18.9781
ltibia 28.0029
lfoot -18.0603 10.1912
ltoes 5.70548
247
root -0.0807936 18.2363 -3.16676 6.00572 -1.72048 -2.89456
lowerback 0.799682 -1.57806 2.21349
upperback -1.57524 -2.01533 2.83545
thorax -2.03925 -1.01864 1.72206
lowerneck -12.723 -5.06029 -5.54224
upperneck 18.1628 -5.52759 -1.41669
head 7.83626 -3.15143 -0.140632
rclavicle 3.75206e-014 -3.45885e-014
rhumerus -29.6168 -15.815 -75.6642
rradius 26.0305
rwrist 1.15897
rhand -20.7715 18.5856
rfingers 7.12502
rthumb 5.59498 -11.3206
lclavicle 3.75206e-014 -3.45885e-014
lhumerus -35.3452 21.4675 76.0844
lradius 29.3149
lwrist -16.5546
lhand -7.65034 27.5815
lfingers 7.12502
lthumb 18.2453 56.7458
rfemur -15.2687 8.87793 27.2413
rtibia 32.1415
rfoot -17.9206 -16.3544
rtoes 25.796
lfemur -12.0302 -8.5004 -18.9366
ltibia 28.0024
lfoot -18.0323 10.1529
ltoes 6.11004
248
root -0.0801158 18.2369 -3.16631 5.98975 -1.75148 -2.90306
lowerback 0.818105 -1.59476 2.20779
upperback -1.57475 -2.03679 2.84845
thorax -2.04816 -1.02921 1.73976
lowerneck -12.7604 -5.03025 -5.52659
upperneck 18.2062 -5.47952 -1.45224
head 7.85489 -3.13163 -0.151303
rclavicle -1.95554e-014 -6.36111e-015
rhumerus -29.5881 -15.7475 -75.6808
rradius 25.9844
rwrist 1.14016
rhand -20.8092 18.5513
rfingers 7.12502
rthumb 5.55855 -11.3558
lclavicle -1.95554e-014 -6.36111e-015
lhumerus -35.3014 21.5888 76.0309
lradius 29.1914
lwrist -16.7199
lhand -7.63728 27.4398
lfingers 7.12502
lthumb 18.2578 56.6029
rfemur -15.2379 8.89318 27.2469
rtibia 32.1218
rfoot -17.902 -16.3159
rtoes 25.7454
lfemur -12.0062 -8.48974 -18.9374
ltibia 27.9996
lfoot -17.9881 10.1823
ltoes 6.1922
249
root -0.0794052 18.2367 -3.16503 5.97741 -1.78004 -2.94965
lowerback 0.797593 -1.60222 2.27329
upperback -1.55316 -2.04724 2.84245
thorax -2.01686 -1.03535 1.69611
lowerneck -12.8482 -5.01132 -5.47716
upperneck 18.308 -5.45253 -1.47396
head 7.90152 -3.119 -0.167469
rclavicle -2.39287e-014 1.19271e-015
rhumerus -29.5575 -15.7951 -75.6916
rradius 25.8963
rwrist 1.21024
rhand -20.9395 18.7004
rfingers 7.12502
rthumb 5.43281 -11.21
lclavicle -2.39287e-014 1.19271e-015
lhumerus -35.2385 21.5039 76.0378
lradius 29.1648
lwrist -16.6594
lhand -7.6394 27.5396
lfingers 7.12502
lthumb 18.2558 56.7029
rfemur -15.2045 8.90445 27.2949
rtibia 32.099
rfoot -17.9035 -16.3201
rtoes 25.5729
lfemur -11.9838 -8.49411 -18.8963
ltibia 28.0027
lfoot -17.9531 10.2319
ltoes 6.01431
250
root -0.0780664 18.237 -3.16752 6.00871 -1.7972 -2.9391
lowerback 0.794942 -1.60317 2.27919
upperback -1.55844 -2.04859 2.82707
thorax -2.02154 -1.03626 1.67707
lowerneck -12.9182 -5.02171 -5.49075
upperneck 18.3905 -5.46449 -1.44327
head 7.943 -3.12378 -0.159835
rclavicle -2.03754e-015 4.01545e-014
rhumerus -29.5541 -15.8047 -75.6977
rradius 25.8408
rwrist 1.18012
rhand -21.0834 18.7378
rfingers 7.12502
rthumb 5.29383 -11.176
lclavicle -2.03754e-015 4.01545e-014
lhumerus -35.2224 21.5182 76.039
lradius 29.2103
lwrist -16.6882
lhand -7.65407 27.3995
lfingers 7.12502
lthumb 18.2417 56.5641
rfemur -15.2523 8.88599 27.2691
rtibia 32.0885
rfoot -17.9012 -16.3031
rtoes 25.4823
lfemur -12.0301 -8.49894 -18.9032
ltibia 28.0011
lfoot -17.9338 10.2306
ltoes 6.08578
251
root -0.0769345 18.2377 -3.16887 6.01394 -1.8021 -2.93954
lowerback 0.786744 -1.61422 2.29389
upperback -1.54351 -2.06396 2.82577
thorax -2.00198 -1.04408 1.6673
lowerneck -13.0304 -5.02299 -5.53737
upperneck 18.4699 -5.45288 -1.41684
head 7.99168 -3.11995 -0.146824
rclavicle -8.69683e-015 -1.98785e-015
rhumerus -29.5108 -15.7198 -75.7333
rradius 25.8243
rwrist 1.08744
rhand -21.1475 18.4942
rfingers 7.12502
rthumb 5.23192 -11.4212
lclavicle -8.69683e-015 -1.98785e-015
lhumerus -35.1713 21.4458 76.0758
lradius 29.2567
lwrist -16.5514
lhand -7.66491 27.2492
lfingers 7.12502
lthumb 18.2312 56.4148
rfemur -15.2594 8.9075 27.2634
rtibia 32.0822
rfoot -17.8746 -16.2838
rtoes 25.584
lfemur -12.0419 -8.49919 -18.9112
ltibia 28.0117
lfoot -17.9734 10.2443
ltoes 6.03152
252
root -0.0775244 18.238 -3.16899 6.0202 -1.83878 -2.94162
lowerback 0.784667 -1.61356 2.26364
upperback -1.54719 -2.06328 2.84718
thorax -2.00275 -1.04315 1.7062
lowerneck -13.0502 -5.00957 -5.54475
upperneck 18.489 -5.42519 -1.44662
head 8.00052 -3.11053 -0.153252
rclavicle 2.85256e-014 -1.70955e-014
rhumerus -29.5035 -15.7403 -75.6851
rradius 25.7339
rwrist 1.1159
rhand -21.2215 18.4867
rfingers 7.12502
rthumb 5.16052 -11.4305
lclavicle 2.85256e-014 -1.70955e-014
lhumerus -35.1547 21.3865 76.1366
lradius 29.3033
lwrist -16.3858
lhand -7.69325 27.2507
lfingers 7.12502
lthumb 18.204 56.4189
rfemur -15.2712 8.95348 27.259
rtibia 32.1056
rfoot -17.9241 -16.2557
rtoes 25.8793
lfemur -12.0503 -8.49085 -18.9131
ltibia 28.039
lfoot -18.0409 10.2669
ltoes 5.85157
253
root -0.0771697 18.2374 -3.17329 6.06305 -1.82426 -2.93371
lowerback 0.838896 -1.63027 2.25222
upperback -1.60097 -2.08162 2.84528
thorax -2.08799 -1.05251 1.7142
lowerneck -12.9932 -5.00251 -5.56724
upperneck 18.4888 -5.42321 -1.40561
head 7.99209 -3.10727 -0.134378
rclavicle -1.28713e-014 3.18055e-015
rhumerus -29.5641 -15.8933 -75.6062
rradius 25.642
rwrist 1.24481
rhand -21.2823 18.5352
rfingers 7.12502
rthumb 5.10181 -11.3833
lclavicle -1.28713e-014 3.18055e-015
lhumerus -35.1957 21.4611 76.0993
lradius 29.318
lwrist -16.425
lhand -7.83938 27.0973
lfingers 7.12502
lthumb 18.0634 56.2786
rfemur -15.3527 8.94102 27.2421
rtibia 32.1366
rfoot -17.9221 -16.3023
rtoes 25.7481
lfemur -12.1343 -8.50718 -18.9092
ltibia 28.061
lfoot -18.0147 10.2828
ltoes 5.79847
